<svg xmlns="http://www.w3.org/2000/svg" viewBox="0 0 617.22 104.54"><defs><style>.cls-1{font-size:25.23px;font-family:Lato-Regular, Lato;letter-spacing:0.37em;}.cls-2{letter-spacing:0.4em;}</style></defs><g id="Layer_2" data-name="Layer 2"><g id="Layer_1-2" data-name="Layer 1"><path d="M513.83,5.55V72a33.22,33.22,0,0,1-12.18-1.79l-.78-.29h0l-.17-.06-.17-.08-.05,0-.11-.06-.06,0h0l-.29-.16a3.23,3.23,0,0,1-.53-.35,3.46,3.46,0,0,1-.89-1.08,3.94,3.94,0,0,1-.44-1.59h0V43.27h-40a50.17,50.17,0,0,1,1.17-12.17c.05-.27.12-.52.18-.78a.08.08,0,0,1,0,0l0-.07c0-.06,0-.14.06-.22a.29.29,0,0,0,0-.09v0c0-.06,0-.12.05-.18a0,0,0,0,0,0,0c0-.09.06-.18.1-.28a4.85,4.85,0,0,1,.23-.54,3,3,0,0,1,.7-.89,2,2,0,0,1,1-.44h36.4V0a33.16,33.16,0,0,1,12.18,1.79c.27.1.54.19.81.3l0,0,0,0,.17.06.16.08.05,0,.11.06,0,0h0s0,0,0,0l.29.16a3.78,3.78,0,0,1,.54.35A3.54,3.54,0,0,1,513.38,4,4.17,4.17,0,0,1,513.83,5.55Z"/><path d="M187.15,27.4a.08.08,0,0,1,0-.07,35.26,35.26,0,0,0-4-8.54h0c-.11-.18-.23-.38-.37-.57a38.12,38.12,0,0,0-4.93-5.89c-.42-.42-.87-.83-1.32-1.23-.78-.69-1.6-1.36-2.43-2a42.86,42.86,0,0,0-6.85-4.23,46.64,46.64,0,0,0-10.61-3.75,50.33,50.33,0,0,0-21.21,0,47.25,47.25,0,0,0-10.6,3.75,42.53,42.53,0,0,0-10.61,7.45,35.16,35.16,0,0,0-9.26,15,31.67,31.67,0,0,0,0,18.23,33.59,33.59,0,0,0,4.34,9.11,36,36,0,0,0,4.92,5.87A37.82,37.82,0,0,0,118,63.78,41.89,41.89,0,0,0,124.82,68a46.25,46.25,0,0,0,10.6,3.73,49.47,49.47,0,0,0,21.21,0A45.66,45.66,0,0,0,167.24,68a42.86,42.86,0,0,0,6.85-4.23c.83-.65,1.65-1.31,2.43-2,.45-.41.9-.81,1.32-1.24a36.62,36.62,0,0,0,4.93-5.87,5.27,5.27,0,0,0,.37-.59h0a35.12,35.12,0,0,0,4-8.52s0-.06,0-.08a32.08,32.08,0,0,0,0-18.08Zm-10.3,2.2a.06.06,0,0,0,0,.06,8.36,8.36,0,0,1,.23,1c-.09-.37-.19-.75-.31-1.12C176.83,29.54,176.85,29.56,176.85,29.6Zm-7.94-12.17c.28.27.57.51.82.79a.63.63,0,0,1,.17.15A26,26,0,0,1,173,21.89a28.1,28.1,0,0,0-3.23-3.67c-.4-.38-.77-.75-1.2-1.11Zm1,19a17.45,17.45,0,0,1-1.37,6.82,20.78,20.78,0,0,1-1.62,3.1,21.9,21.9,0,0,1-3.11,3.74,18.1,18.1,0,0,1-1.87,1.6,24.54,24.54,0,0,1-7,3.73c-.33.12-.66.22-1,.32a27.4,27.4,0,0,1-15.91,0,24.63,24.63,0,0,1-8-4,20.34,20.34,0,0,1-1.86-1.6,19.73,19.73,0,0,1-4.72-6.84,17.86,17.86,0,0,1,0-13.67,19.48,19.48,0,0,1,4.72-6.82,19.1,19.1,0,0,1,1.86-1.62,24.83,24.83,0,0,1,8-4.05,27.63,27.63,0,0,1,15.91,0c.33.1.66.2,1,.32a24.54,24.54,0,0,1,7,3.73,17.11,17.11,0,0,1,1.87,1.62,21,21,0,0,1,3.11,3.72,21.28,21.28,0,0,1,1.62,3.1A17.53,17.53,0,0,1,169.9,36.45Zm-2.83-20.51a1,1,0,0,1,.17.14c-.33-.27-.69-.51-1-.77C166.48,15.51,166.79,15.71,167.07,15.94Zm-5.14-3.18c.26.14.55.26.81.42l-1-.52A1.15,1.15,0,0,1,161.93,12.76ZM154,10a.28.28,0,0,1,.12,0c-.42-.1-.85-.18-1.27-.26C153.24,9.8,153.62,9.88,154,10Zm-15.91,0c.38-.08.76-.16,1.16-.22-.42.08-.87.16-1.27.26A.25.25,0,0,1,138.08,10Zm-8,2.8c.33-.17.66-.33,1-.47-.45.2-.89.43-1.34.65A3.27,3.27,0,0,1,130.12,12.76ZM125,15.94a6,6,0,0,1,.71-.49,9.19,9.19,0,0,0-.87.63A.7.7,0,0,1,125,15.94Zm-9,29.62a3.3,3.3,0,0,1-.19-.49c.23.59.47,1.16.75,1.74A11.63,11.63,0,0,1,116,45.56Zm9,11.38a.7.7,0,0,1-.16-.14c.28.22.56.42.87.64C125.45,57.28,125.22,57.12,125,56.94Zm10.44,5.28c-.49-.14-1-.3-1.46-.48.68.24,1.34.44,2,.64C135.8,62.34,135.61,62.28,135.42,62.22Zm21.21,0c-.19.06-.38.12-.56.16.56-.16,1.1-.32,1.62-.52C157.36,62,157,62.1,156.63,62.22Zm10.44-5.28c-.28.22-.59.42-.87.63.35-.25.71-.51,1-.77A1,1,0,0,1,167.07,56.94Zm6.53-6.83A6.71,6.71,0,0,1,173,51c.33-.44.64-.87.92-1.31C173.79,49.81,173.69,50,173.6,50.11Zm3.28-6.9a.06.06,0,0,0,0,.06s0,.06,0,.1c.12-.36.22-.73.31-1.11A8.2,8.2,0,0,1,176.88,43.21Z"/><path d="M316.53,0v66.4a4.17,4.17,0,0,1-.45,1.59,3.54,3.54,0,0,1-.88,1.08,3.78,3.78,0,0,1-.54.35l-.29.16s0,0,0,0h0l0,0-.11.06-.05,0-.16.08-.17.06-.05,0,0,0c-.27.11-.54.2-.81.3A33.16,33.16,0,0,1,300.78,72V5.55h0A3.94,3.94,0,0,1,301.23,4a3.46,3.46,0,0,1,.89-1.08,3.23,3.23,0,0,1,.53-.35l.29-.16h0l.06,0,.11-.06.05,0,.17-.08.17-.06h0l.78-.29A33.22,33.22,0,0,1,316.53,0Z"/><path d="M448.58,0v66.4a4.17,4.17,0,0,1-.45,1.59,3.54,3.54,0,0,1-.88,1.08,3.78,3.78,0,0,1-.54.35l-.29.16s0,0,0,0h0l0,0-.11.06-.05,0-.16.08-.17.06,0,0,0,0c-.27.11-.54.2-.81.3A33.16,33.16,0,0,1,432.83,72V5.55h0A3.94,3.94,0,0,1,433.28,4a3.46,3.46,0,0,1,.89-1.08,3.23,3.23,0,0,1,.53-.35l.29-.16h0l.06,0,.11-.06.05,0,.17-.08.17-.06h0l.78-.29A33.22,33.22,0,0,1,448.58,0Z"/><path d="M282.9,55.38a27.63,27.63,0,0,1-2,11.61l-.33.77a0,0,0,0,0,0,0c0,.06-.05.11-.07.16a.68.68,0,0,1-.09.17s0,0,0,0a1.43,1.43,0,0,1-.09.18,0,0,0,0,0,0,0c-.06.08-.11.18-.18.27a5,5,0,0,1-.39.51,4.25,4.25,0,0,1-1.2.85,5.12,5.12,0,0,1-1.77.42H202.49c.24-2.61.44-4.53.62-6a6.87,6.87,0,0,0,.11-.9c.07-.51.13-.93.19-1.27a10.72,10.72,0,0,1,.72-2.29,13.89,13.89,0,0,1,2.13-3.26s0,0,0,0l.16-.12c.12-.13.24-.26.37-.38L207,56c.21-.2.4-.38.54-.49l.57-.53,9.63-6.45L254.2,22.6l10.86-6.86h-57a4.17,4.17,0,0,1-1.59-.45,3.54,3.54,0,0,1-1.08-.88,3.78,3.78,0,0,1-.35-.54l-.16-.29s0,0,0,0v0a1.13,1.13,0,0,1-.07-.15l0,0c0-.05,0-.11-.07-.17s0-.12-.07-.17a.08.08,0,0,0,0-.05l0,0-.3-.81A33.14,33.14,0,0,1,202.53,0h71.55l.43,0a11.39,11.39,0,0,1,1.24.16c2,.35,3.56,1,4,1.7h0a3.9,3.9,0,0,1,.39.52c.07.09.12.19.18.28h0s0,0,0,0l0,0a.52.52,0,0,1,.07.11l0,0,.09.16a1.11,1.11,0,0,0,.07.16.08.08,0,0,0,0,0c.11.25.2.49.31.74a27.33,27.33,0,0,1,1.92,8.21,14.47,14.47,0,0,1-.14,2.79s0,.25-.11.62a8.87,8.87,0,0,1-.38,1.39c-.38,1.39-2.42,7.07-11.12,12.21L234.42,55.38Z"/><path d="M87.56,0V72a33.22,33.22,0,0,1-12.18-1.79l-.8-.29h0l-.17-.06-.17-.08,0,0L74,69.63h0l-.29-.16a3.23,3.23,0,0,1-.53-.35A3.46,3.46,0,0,1,72.26,68a3.94,3.94,0,0,1-.44-1.59h0V22.74L54.2,41.48l-7.46,7.94-3,3.15,0,0L33.36,41.48,15.75,22.74v43.7h0A3.94,3.94,0,0,1,15.3,68a3.46,3.46,0,0,1-.89,1.08,3.23,3.23,0,0,1-.53.35l-.29.16h0l-.17.09-.05,0-.17.08-.17.06h0l-.8.29A33.22,33.22,0,0,1,0,72V0H15.75s.32,0,.79.6l27.24,29L71,.6c.47-.59.79-.6.79-.6Z"/><path d="M271.88,23.46h-1A8.67,8.67,0,0,1,271.88,23.46Z"/><path d="M416.83,49.09c0,.27,0,.53,0,.8V50a21.9,21.9,0,0,1-.71,5.28.29.29,0,0,0,0,.09A22,22,0,0,1,394.87,71.7H334.55a33.05,33.05,0,0,1,1.79-12.16c.11-.31.22-.61.34-.92l0-.06s0,0,0,0c.07-.17.12-.26.15-.34s.12-.25.2-.38a3.65,3.65,0,0,1,.35-.52,3.32,3.32,0,0,1,1.08-.89,3.78,3.78,0,0,1,1.59-.44H361v.08h32a12.66,12.66,0,0,0,2.89-.19c.07,0,.13-.06.19-.07l.15,0a6.36,6.36,0,0,0,4-5.92v-.13h0v-.09A6.32,6.32,0,0,0,397,44.06l0,0a4.25,4.25,0,0,0-.84-.35,3.74,3.74,0,0,0-1.28-.14H356.6A21.82,21.82,0,0,1,346.27,41c-.46-.24-.9-.49-1.34-.77a22,22,0,0,1-9.42-11.87.41.41,0,0,1,0-.09l-.05-.15-.09-.28,0-.16-.17-.56a1.3,1.3,0,0,0,0-.15,22.07,22.07,0,0,1-.56-4.26v-.07c0-.27,0-.53,0-.8v-.09a21.9,21.9,0,0,1,.71-5.28.29.29,0,0,0,0-.09A22,22,0,0,1,356.49,0h60.32c0,.17,0,.33,0,.5h0A33.14,33.14,0,0,1,415,12.67c-.11.31-.22.61-.34.91a.14.14,0,0,1,0,.06v0l-.15.33c-.06.12-.12.25-.2.38a3.71,3.71,0,0,1-.35.53,3.46,3.46,0,0,1-1.08.89,3.94,3.94,0,0,1-1.59.44H390.42v-.09h-32a12.27,12.27,0,0,0-2.89.2l-.19.07-.15,0a6.34,6.34,0,0,0-4,5.91v.18a6.31,6.31,0,0,0,3.22,5.08,0,0,0,0,1,0,0,4.12,4.12,0,0,0,.85.35,4.27,4.27,0,0,0,1.28.14h38.21a21.82,21.82,0,0,1,10.33,2.58c.46.24.9.5,1.34.77a22,22,0,0,1,9.42,11.87,1.78,1.78,0,0,1,.09.24l.09.28,0,.16.17.56a1.3,1.3,0,0,0,0,.15A21.3,21.3,0,0,1,416.83,49.09Z"/><path d="M334.53,22.61c0-.14,0-.29,0-.44v-.36C334.51,22.08,334.52,22.34,334.53,22.61Z"/><path d="M578.75,25.13a12.32,12.32,0,0,1-.33,1.49,13.86,13.86,0,0,0,.32-1.49Z"/><polygon points="583.34 35.06 583.32 35.06 583.33 35.04 583.34 35.06"/><path d="M565.65,35.56l1.18-2.48C566.38,33.93,566,34.76,565.65,35.56Z"/><path d="M578.61,25.86c.51,1.2-1-1.29.14-.73"/><path d="M591.31,14.49,590.13,12l0,0c-.39-.76-.82-1.53-1.29-2.3a40.79,40.79,0,0,0-2.48-3.62h0a18.94,18.94,0,0,0-5.2-5,4,4,0,0,0-.61-.28c-.8-.47-3.57-.8-6.88-.8s-6,.32-6.85.78a3.78,3.78,0,0,0-.66.3,18.94,18.94,0,0,0-5.2,5h0a40.79,40.79,0,0,0-2.48,3.62c-.47.77-.9,1.54-1.29,2.3l0,0L556,14.49,530,69.08a33.09,33.09,0,0,0,11.77,3.6l.82.08s.48,0,.64,0l.38,0a3.68,3.68,0,0,0,.63-.09,3.35,3.35,0,0,0,1.27-.6,3.93,3.93,0,0,0,1.08-1.24l27-56.85v0h0v0l27,56.85a3.93,3.93,0,0,0,1.08,1.24,3.35,3.35,0,0,0,1.27.6,3.68,3.68,0,0,0,.63.09l.38,0c.16,0,.64,0,.64,0l.82-.08a33.09,33.09,0,0,0,11.77-3.6Z"/></g><g id="Layer_2-2" data-name="Layer 2"><text class="cls-1" transform="translate(68.56 99.92)">e<tspan class="cls-2" x="22.56" y="0" xml:space="preserve">xpanding  capabilities</tspan></text></g></g></svg>