<svg xmlns="http://www.w3.org/2000/svg" viewBox="0 0 764.64 448.26"><defs><style>.cls-1{fill:#7e22ce;}.cls-2{fill:#fff;}.cls-3{fill:#2bc179;}</style></defs><g id="Layer_2" data-name="Layer 2"><g id="Layer_1-2" data-name="Layer 1"><rect class="cls-1" width="764.64" height="448.26"/><rect class="cls-1" x="67.11" y="188.15" width="626.92" height="71.95"/><path class="cls-2" d="M620.24,260.25s.48,0,.64,0h-.41Z"/><path class="cls-2" d="M252.12,259.38a1,1,0,0,1-.07-.15v0c0-.05,0-.09,0-.13l.09.24Z"/><path class="cls-2" d="M292.21,253l.09,0-.08,0Z"/><path class="cls-2" d="M292.21,253l.09,0-.08,0Z"/><polygon class="cls-2" points="111.59 165.57 111.55 165.61 111.55 165.53 111.59 165.57"/><polygon class="cls-2" points="114.55 165.53 114.55 165.54 111.61 168.7 111.59 168.68 114.55 165.53"/><path class="cls-2" d="M484.66,166v.36c0-.27,0-.53,0-.8C484.65,165.67,484.66,165.82,484.66,166Z"/><path class="cls-3" d="M484.66,165.53a20,20,0,0,1-.71,5.28A21.9,21.9,0,0,0,484.66,165.53Z"/><path class="cls-2" d="M537.75,217.72a.29.29,0,0,1,0,.09c0,.08,0,.16-.06.22l0,.07a1.29,1.29,0,0,1,0-.19C537.71,217.84,537.74,217.77,537.75,217.72Z"/><path class="cls-2" d="M408.1,219a.3.3,0,0,1,0-.08.09.09,0,0,1,0-.05Z"/><path class="cls-2" d="M587.54,193.24v66.4a33.22,33.22,0,0,1-12.18-1.79l-.78-.29h0l-.17-.06-.17-.08-.05,0-.11-.06-.06,0h0l-.29-.16a3.23,3.23,0,0,1-.53-.35,3.46,3.46,0,0,1-.89-1.08,3.94,3.94,0,0,1-.44-1.59h0V231h-40A50.17,50.17,0,0,1,533,218.79c0-.27.12-.52.18-.78v0l0-.07c0-.06,0-.14.06-.22a.29.29,0,0,0,0-.09v0c0-.06,0-.12,0-.18a0,0,0,0,0,0,0c0-.09.06-.18.1-.28a4.85,4.85,0,0,1,.23-.54,3,3,0,0,1,.7-.89,2,2,0,0,1,1-.44h36.4V187.71A33.16,33.16,0,0,1,584,189.5c.27.1.54.19.81.3l0,0,0,0,.17.06.16.08,0,0,.11.06,0,0h0l.29.16a3.78,3.78,0,0,1,.54.35,3.54,3.54,0,0,1,.88,1.08A4.17,4.17,0,0,1,587.54,193.24Z"/><path class="cls-2" d="M260.86,215.08a.07.07,0,0,1,0-.06,35.32,35.32,0,0,0-4-8.55h0a6,6,0,0,0-.37-.56,38.2,38.2,0,0,0-4.93-5.9c-.42-.42-.87-.83-1.32-1.23-.78-.69-1.6-1.36-2.43-2a43.64,43.64,0,0,0-6.85-4.24,46.62,46.62,0,0,0-10.61-3.74,49.9,49.9,0,0,0-21.21,0,47.23,47.23,0,0,0-10.6,3.74,42.64,42.64,0,0,0-6.84,4.24,41.92,41.92,0,0,0-3.77,3.21,35.19,35.19,0,0,0-9.26,15,31.64,31.64,0,0,0,0,18.22,33.59,33.59,0,0,0,4.34,9.11,36.54,36.54,0,0,0,4.92,5.88,39.08,39.08,0,0,0,3.77,3.23,42.64,42.64,0,0,0,6.84,4.24,46.23,46.23,0,0,0,10.6,3.72,49.06,49.06,0,0,0,21.21,0A45.65,45.65,0,0,0,241,255.7a43.64,43.64,0,0,0,6.85-4.24c.83-.64,1.65-1.31,2.43-2,.45-.4.9-.81,1.32-1.23a37.14,37.14,0,0,0,4.93-5.88,6.24,6.24,0,0,0,.37-.58h0a35.19,35.19,0,0,0,4-8.53s0-.06,0-.08a32.08,32.08,0,0,0,0-18.08Zm-10.3,2.21a.06.06,0,0,0,0,.06,7.73,7.73,0,0,1,.23,1c-.09-.37-.19-.75-.31-1.12C250.54,217.23,250.56,217.25,250.56,217.29Zm-7.94-12.17a10.2,10.2,0,0,1,.82.79.85.85,0,0,1,.17.14,26.61,26.61,0,0,1,3.06,3.52,28,28,0,0,0-3.23-3.66c-.4-.39-.77-.75-1.2-1.12Zm1,19a17.41,17.41,0,0,1-1.37,6.82,20.31,20.31,0,0,1-1.62,3.1,22,22,0,0,1-3.11,3.75,20.94,20.94,0,0,1-1.87,1.6,24.51,24.51,0,0,1-6.95,3.72q-.49.18-1,.33a27.63,27.63,0,0,1-15.91,0,24.73,24.73,0,0,1-8-4,24,24,0,0,1-1.86-1.6,19.86,19.86,0,0,1-4.72-6.85,17.83,17.83,0,0,1,0-13.66,19.51,19.51,0,0,1,4.72-6.83,20.55,20.55,0,0,1,1.86-1.62,24.73,24.73,0,0,1,8-4.05,27.63,27.63,0,0,1,15.91,0q.5.15,1,.33a24.51,24.51,0,0,1,6.95,3.72,18.26,18.26,0,0,1,1.87,1.62,21.1,21.1,0,0,1,3.11,3.73,20.31,20.31,0,0,1,1.62,3.1A17.44,17.44,0,0,1,243.61,224.13Zm-2.83-20.51a1,1,0,0,1,.17.14c-.33-.26-.69-.51-1-.77C240.19,203.19,240.5,203.4,240.78,203.62Zm-5.14-3.18c.26.14.55.26.81.42l-1-.52A1.15,1.15,0,0,1,235.64,200.44Zm-7.94-2.79a.28.28,0,0,1,.12,0c-.42-.11-.85-.19-1.27-.27C227,197.48,227.32,197.56,227.7,197.65Zm-15.91,0c.38-.09.76-.17,1.16-.23-.42.08-.87.16-1.27.27A.25.25,0,0,1,211.79,197.65Zm-8,2.79c.33-.16.66-.32,1-.47l-1.34.65A3.27,3.27,0,0,1,203.83,200.44Zm-5.14,3.18a7.54,7.54,0,0,1,.71-.49c-.31.21-.59.41-.87.63A.7.7,0,0,1,198.69,203.62Zm-8.95,29.62a3.19,3.19,0,0,1-.19-.48c.23.58.47,1.15.75,1.74A11.79,11.79,0,0,1,189.74,233.24Zm8.95,11.38a.7.7,0,0,1-.16-.14c.28.22.56.42.87.65C199.16,245,198.93,244.8,198.69,244.62Zm10.44,5.29c-.49-.15-1-.31-1.46-.49.68.24,1.34.45,2,.65C209.51,250,209.32,250,209.13,249.91Zm21.21,0c-.19.06-.38.12-.56.16.56-.16,1.1-.33,1.62-.53C231.07,249.68,230.69,249.78,230.34,249.91Zm10.44-5.29c-.28.22-.59.43-.87.63.35-.24.71-.51,1-.77A1,1,0,0,1,240.78,244.62Zm6.53-6.82a8.42,8.42,0,0,1-.64.87c.33-.45.64-.87.92-1.32C247.5,237.49,247.4,237.64,247.31,237.8Zm3.28-6.91a.06.06,0,0,0,0,.06s0,.06-.05.1c.12-.36.22-.72.31-1.11A7.73,7.73,0,0,1,250.59,230.89Z"/><path class="cls-2" d="M390.24,187.71v66.4a4.17,4.17,0,0,1-.45,1.59,3.54,3.54,0,0,1-.88,1.08,3.78,3.78,0,0,1-.54.35l-.29.16H388l0,0-.11.06-.05,0-.16.08-.17.06-.05,0,0,0-.81.3a33.16,33.16,0,0,1-12.18,1.79v-66.4h0a3.94,3.94,0,0,1,.44-1.59,3.46,3.46,0,0,1,.89-1.08,3.23,3.23,0,0,1,.53-.35l.29-.16h0l.06,0,.11-.06,0,0,.17-.08.17-.06h0l.78-.29A33.22,33.22,0,0,1,390.24,187.71Z"/><path class="cls-2" d="M522.29,187.71v66.4a4.17,4.17,0,0,1-.45,1.59,3.54,3.54,0,0,1-.88,1.08,3.78,3.78,0,0,1-.54.35l-.29.16h0l0,0-.11.06,0,0-.16.08-.17.06,0,0,0,0-.81.3a33.16,33.16,0,0,1-12.18,1.79v-66.4h0a3.94,3.94,0,0,1,.44-1.59,3.46,3.46,0,0,1,.89-1.08,3.23,3.23,0,0,1,.53-.35l.29-.16h0l.06,0,.11-.06.05,0,.17-.08.17-.06h0l.78-.29A33.22,33.22,0,0,1,522.29,187.71Z"/><path class="cls-2" d="M356.61,243.06a27.63,27.63,0,0,1-2,11.61l-.33.77a0,0,0,0,0,0,0c0,.06,0,.11-.07.16a.68.68,0,0,1-.09.17s0,0,0,0L354,256a0,0,0,0,0,0,0c-.06.08-.11.18-.18.27a5,5,0,0,1-.39.51,4.25,4.25,0,0,1-1.2.85,5.12,5.12,0,0,1-1.77.42H276.2c.24-2.61.44-4.53.62-6a6.87,6.87,0,0,0,.11-.9c.07-.51.13-.93.19-1.27a10.72,10.72,0,0,1,.72-2.29A13.89,13.89,0,0,1,280,244.4l0,0,.16-.12c.12-.13.24-.26.37-.38l.23-.21c.21-.2.4-.38.54-.49l.57-.53,9.63-6.45,36.46-25.91,10.86-6.86h-57a4.17,4.17,0,0,1-1.59-.45,3.54,3.54,0,0,1-1.08-.88,3.78,3.78,0,0,1-.35-.54l-.16-.29s0,0,0,0,0,0,0,0a1.13,1.13,0,0,1-.07-.15l0,0c0-.05,0-.11-.07-.17s0-.12-.07-.17a.08.08,0,0,0,0-.05l0,0-.3-.81a33.14,33.14,0,0,1-1.79-12.17h71.55l.43,0a11.39,11.39,0,0,1,1.24.16c2,.35,3.56,1,4,1.7h0a3.9,3.9,0,0,1,.39.52c.07.09.12.19.18.28h0s0,0,0,0l0,0a.52.52,0,0,1,.07.11.08.08,0,0,0,0,0l.09.16a1.11,1.11,0,0,0,.07.16.08.08,0,0,0,0,0c.11.25.2.49.31.74a27.33,27.33,0,0,1,1.92,8.21,14.47,14.47,0,0,1-.14,2.79s0,.25-.11.62a8.87,8.87,0,0,1-.38,1.39c-.38,1.39-2.42,7.07-11.12,12.21l-36.74,26.12Z"/><path class="cls-2" d="M161.27,187.68v72a33.22,33.22,0,0,1-12.18-1.79l-.8-.29h0l-.17-.06-.17-.08-.05,0-.17-.09h0l-.29-.16a3.23,3.23,0,0,1-.53-.35,3.46,3.46,0,0,1-.89-1.08,3.94,3.94,0,0,1-.44-1.59h0v-43.7l-17.61,18.74-7.46,7.94-3,3.15,0,0-10.38-11.05L89.46,210.42v43.7h0a3.94,3.94,0,0,1-.44,1.59,3.46,3.46,0,0,1-.89,1.08,3.23,3.23,0,0,1-.53.35l-.29.16h0l-.17.09,0,0-.17.08-.17.06h0l-.8.29a33.22,33.22,0,0,1-12.18,1.79v-72H89.46s.32,0,.79.6l27.24,29,27.24-29c.47-.59.79-.6.79-.6Z"/><path class="cls-2" d="M345.59,211.14h-1A8.67,8.67,0,0,1,345.59,211.14Z"/><path class="cls-2" d="M490.54,236.77c0,.27,0,.53,0,.8v.09a21.9,21.9,0,0,1-.71,5.28.29.29,0,0,0,0,.09,22,22,0,0,1-21.25,16.35H408.26a33.05,33.05,0,0,1,1.79-12.16c.11-.31.22-.61.34-.92a.39.39,0,0,1,0-.06s0,0,0,0c.07-.17.12-.26.15-.34s.12-.25.2-.38a3.65,3.65,0,0,1,.35-.52,3.32,3.32,0,0,1,1.08-.89,3.78,3.78,0,0,1,1.59-.44h20.88v.08h32a12.66,12.66,0,0,0,2.89-.19c.07,0,.13-.06.19-.07l.15-.05a6.36,6.36,0,0,0,4-5.92v-.13h0v-.09a6.32,6.32,0,0,0-3.24-5.53l0,0a4.25,4.25,0,0,0-.84-.35,3.74,3.74,0,0,0-1.28-.14H430.31A21.82,21.82,0,0,1,420,228.65c-.46-.24-.9-.49-1.34-.77A22,22,0,0,1,409.22,216a.41.41,0,0,1,0-.09s0-.09-.05-.15l-.09-.28,0-.16-.17-.56a1.3,1.3,0,0,0,0-.15,22.07,22.07,0,0,1-.56-4.26v-.07c0-.27,0-.53,0-.8v-.09a21.9,21.9,0,0,1,.71-5.28.29.29,0,0,0,0-.09,22,22,0,0,1,21.25-16.35h60.32c0,.17,0,.33,0,.5h0a33.14,33.14,0,0,1-1.79,12.17c-.11.31-.22.61-.34.91a.14.14,0,0,1,0,.06s0,0,0,0l-.15.33c-.06.12-.12.25-.2.38a3.71,3.71,0,0,1-.35.53,3.46,3.46,0,0,1-1.08.89,3.94,3.94,0,0,1-1.59.44H464.13v-.09h-32a12.27,12.27,0,0,0-2.89.2l-.19.07-.15.05a6.34,6.34,0,0,0-4,5.91v.18a6.31,6.31,0,0,0,3.22,5.08l0,0a4.12,4.12,0,0,0,.85.35,4.27,4.27,0,0,0,1.28.14h38.21a21.82,21.82,0,0,1,10.33,2.58c.46.24.9.5,1.34.77a22,22,0,0,1,9.42,11.87,1.78,1.78,0,0,1,.09.24l.09.28,0,.16.17.56a1.3,1.3,0,0,0,0,.15A21.3,21.3,0,0,1,490.54,236.77Z"/><path class="cls-2" d="M408.24,210.29c0-.14,0-.29,0-.44v-.36C408.22,209.76,408.23,210,408.24,210.29Z"/><path class="cls-2" d="M652.46,212.81a12.32,12.32,0,0,1-.33,1.49,13.86,13.86,0,0,0,.32-1.49Z"/><polygon class="cls-2" points="657.05 222.74 657.03 222.74 657.04 222.72 657.05 222.74"/><path class="cls-2" d="M639.36,223.24l1.18-2.48C640.09,221.61,639.7,222.44,639.36,223.24Z"/><path class="cls-2" d="M652.31,213.54c.52,1.2-1-1.29.15-.73"/><path class="cls-2" d="M665,202.17l-1.18-2.48,0,0c-.39-.76-.82-1.53-1.29-2.3a40.79,40.79,0,0,0-2.48-3.62,0,0,0,0,0,0,0,18.94,18.94,0,0,0-5.2-5,4,4,0,0,0-.61-.28c-.8-.47-3.57-.8-6.88-.8s-6,.32-6.85.78a3.78,3.78,0,0,0-.66.3,18.94,18.94,0,0,0-5.2,5,0,0,0,0,0,0,0,40.79,40.79,0,0,0-2.48,3.62c-.47.77-.9,1.54-1.29,2.3l0,0-1.18,2.48-25.91,54.59a33.09,33.09,0,0,0,11.77,3.6l.82.08s.48,0,.64,0l.38,0a3.68,3.68,0,0,0,.63-.09,3.35,3.35,0,0,0,1.27-.6,3.93,3.93,0,0,0,1.08-1.24l27-56.85h0l27,56.85a3.93,3.93,0,0,0,1.08,1.24,3.35,3.35,0,0,0,1.27.6,3.68,3.68,0,0,0,.63.09l.38,0c.16,0,.64,0,.64,0l.82-.08a33.09,33.09,0,0,0,11.77-3.6Z"/></g></g></svg>