<svg xmlns="http://www.w3.org/2000/svg" viewBox="0 0 705.6 381.21"><defs><style>.cls-1{fill:#efd90f;}.cls-2{fill:#7e22ce;}</style></defs><g id="Layer_2" data-name="Layer 2"><g id="Layer_1-2" data-name="Layer 1"><rect class="cls-1" width="705.6" height="381.21" rx="80"/><path class="cls-2" d="M560.49,159v66.4a33.22,33.22,0,0,1-12.18-1.79l-.78-.29h0l-.17-.06-.17-.08,0,0-.11-.06-.06,0h0l-.29-.16a3.23,3.23,0,0,1-.53-.35,3.46,3.46,0,0,1-.89-1.08,3.94,3.94,0,0,1-.44-1.59h0V196.76h-40a50.17,50.17,0,0,1,1.17-12.17c0-.27.12-.52.18-.78v0l0-.07c0-.06,0-.14.06-.22a.29.29,0,0,0,0-.09v0c0-.06,0-.12.05-.18a0,0,0,0,0,0,0c0-.09.06-.18.1-.28a4.85,4.85,0,0,1,.23-.54,3,3,0,0,1,.7-.89,2,2,0,0,1,1-.44h36.4V153.51a33.16,33.16,0,0,1,12.18,1.79l.81.3,0,0,0,0,.17.06.16.08,0,0,.11.06,0,0h0s0,0,0,0l.29.16a3.78,3.78,0,0,1,.54.35,3.54,3.54,0,0,1,.88,1.08A4.17,4.17,0,0,1,560.49,159Z"/><path class="cls-2" d="M233.81,180.88a.06.06,0,0,1,0-.06,34.88,34.88,0,0,0-4-8.54h0c-.12-.18-.24-.39-.38-.57a37.5,37.5,0,0,0-4.92-5.89c-.43-.43-.87-.83-1.32-1.24-.78-.68-1.6-1.35-2.43-2a43,43,0,0,0-6.86-4.23,46.39,46.39,0,0,0-10.6-3.75,50.33,50.33,0,0,0-21.21,0,47.34,47.34,0,0,0-10.61,3.75,42.68,42.68,0,0,0-10.6,7.45,35,35,0,0,0-9.26,15,31.45,31.45,0,0,0,0,18.23,33.4,33.4,0,0,0,4.33,9.11,37.06,37.06,0,0,0,4.93,5.87,39.18,39.18,0,0,0,3.77,3.24,41.8,41.8,0,0,0,6.83,4.23,46.33,46.33,0,0,0,10.61,3.73,49.47,49.47,0,0,0,21.21,0,45.42,45.42,0,0,0,10.6-3.73,43,43,0,0,0,6.86-4.23c.83-.65,1.65-1.32,2.43-2,.45-.4.89-.8,1.32-1.23a36.47,36.47,0,0,0,4.92-5.87c.14-.2.26-.39.38-.59h0a34.75,34.75,0,0,0,4-8.52s0-.06,0-.08a32.36,32.36,0,0,0,0-18.09Zm-10.3,2.21a.07.07,0,0,0,0,.06,7,7,0,0,1,.24.95c-.1-.36-.19-.75-.31-1.11C223.48,183,223.51,183.05,223.51,183.09Zm-7.94-12.17c.28.26.56.51.82.79a1.27,1.27,0,0,1,.17.14,27.45,27.45,0,0,1,3.06,3.53,28.86,28.86,0,0,0-3.23-3.67c-.4-.38-.78-.75-1.2-1.11Zm1,19a17.68,17.68,0,0,1-1.37,6.83,20.41,20.41,0,0,1-1.63,3.1,21.45,21.45,0,0,1-3.11,3.74,17,17,0,0,1-1.86,1.6,24.67,24.67,0,0,1-7,3.73c-.33.12-.66.22-1,.32a27.4,27.4,0,0,1-15.91,0,24.63,24.63,0,0,1-8-4.05,20.47,20.47,0,0,1-1.87-1.6,19.84,19.84,0,0,1-4.71-6.84,17.74,17.74,0,0,1,0-13.67,19.58,19.58,0,0,1,4.71-6.82,17.94,17.94,0,0,1,1.87-1.62,24.63,24.63,0,0,1,8-4.05,27.4,27.4,0,0,1,15.91,0c.33.1.66.2,1,.32a24.67,24.67,0,0,1,7,3.73,15.21,15.21,0,0,1,1.86,1.62,20.61,20.61,0,0,1,3.11,3.72,20,20,0,0,1,1.63,3.1A17.69,17.69,0,0,1,216.56,189.93Zm-2.83-20.51a1,1,0,0,1,.16.14c-.33-.26-.68-.5-1-.76C213.14,169,213.44,169.2,213.73,169.42Zm-5.14-3.18c.26.15.54.27.8.43l-1-.53A1,1,0,0,1,208.59,166.24Zm-7.94-2.79a.28.28,0,0,1,.12,0c-.43-.1-.85-.18-1.28-.26C199.89,163.29,200.27,163.37,200.65,163.45Zm-15.91,0c.38-.08.75-.16,1.16-.22-.43.08-.88.16-1.28.26A.28.28,0,0,1,184.74,163.45Zm-8,2.79c.33-.16.66-.32,1-.46-.45.2-.9.42-1.34.65Zm-5.14,3.18a7.28,7.28,0,0,1,.7-.48c-.3.2-.58.4-.87.62A1,1,0,0,1,171.64,169.42Zm-9,29.63c-.07-.17-.14-.33-.19-.49.24.59.48,1.15.76,1.74C163,199.9,162.85,199.47,162.68,199.05Zm9,11.38a1.14,1.14,0,0,1-.17-.15c.29.23.57.43.87.65C172.11,210.77,171.87,210.61,171.64,210.43Zm10.44,5.28a13.89,13.89,0,0,1-1.46-.49c.68.25,1.34.45,2,.65C182.45,215.83,182.27,215.77,182.08,215.71Zm21.21,0c-.19.06-.38.12-.57.16.57-.16,1.11-.32,1.63-.52C204,215.49,203.64,215.59,203.29,215.71Zm10.44-5.28c-.29.22-.59.42-.87.62.35-.24.7-.5,1-.77A1.1,1.1,0,0,1,213.73,210.43Zm6.53-6.83a7.79,7.79,0,0,1-.64.87c.33-.44.64-.87.92-1.31A4.73,4.73,0,0,0,220.26,203.6Zm3.27-6.9a.07.07,0,0,0,0,.06s0,.06,0,.1c.12-.37.21-.73.31-1.11A7,7,0,0,1,223.53,196.7Z"/><path class="cls-2" d="M363.18,153.51v66.4a4.17,4.17,0,0,1-.45,1.59,3.54,3.54,0,0,1-.88,1.08,3.78,3.78,0,0,1-.54.35l-.29.16h0l0,0-.11.06-.05,0-.16.08-.17.06-.05,0,0,0-.81.3a33.16,33.16,0,0,1-12.18,1.79V159h0a3.94,3.94,0,0,1,.44-1.59,3.46,3.46,0,0,1,.89-1.08,3.23,3.23,0,0,1,.53-.35l.29-.16h0l.06,0,.11-.06,0,0,.17-.08.17-.06h0l.78-.29A33.22,33.22,0,0,1,363.18,153.51Z"/><path class="cls-2" d="M495.23,153.51v66.4a4.17,4.17,0,0,1-.45,1.59,3.54,3.54,0,0,1-.88,1.08,3.78,3.78,0,0,1-.54.35l-.29.16H493l0,0-.11.06-.05,0-.16.08-.17.06-.05,0,0,0-.81.3a33.16,33.16,0,0,1-12.18,1.79V159h0a3.94,3.94,0,0,1,.44-1.59,3.46,3.46,0,0,1,.89-1.08,3.23,3.23,0,0,1,.53-.35l.29-.16h0l.06,0,.11-.06.05,0,.17-.08.17-.06h0l.78-.29A33.22,33.22,0,0,1,495.23,153.51Z"/><path class="cls-2" d="M329.56,208.87a27.63,27.63,0,0,1-2,11.61l-.33.77a0,0,0,0,0,0,0c0,.06-.05.11-.07.16a.68.68,0,0,1-.09.17s0,0,0,0a1.43,1.43,0,0,1-.09.18,0,0,0,0,0,0,0c-.06.08-.11.18-.18.27a5,5,0,0,1-.39.51,4.25,4.25,0,0,1-1.2.85,5.12,5.12,0,0,1-1.77.42H249.15c.24-2.61.44-4.53.62-6a6.87,6.87,0,0,0,.11-.9c.07-.51.13-.93.19-1.27a10.72,10.72,0,0,1,.72-2.29,13.89,13.89,0,0,1,2.13-3.26l0,0,.16-.12c.12-.13.24-.26.37-.38l.23-.21c.21-.2.4-.38.54-.49l.57-.53L264.4,202l36.46-25.91,10.86-6.86h-57a4.17,4.17,0,0,1-1.59-.45,3.54,3.54,0,0,1-1.08-.88,3.78,3.78,0,0,1-.35-.54l-.16-.29s0,0,0,0,0,0,0,0a1.13,1.13,0,0,1-.07-.15l0,0c0-.05,0-.11-.07-.17s0-.12-.07-.17a.08.08,0,0,0,0-.05l0,0-.3-.81a33.14,33.14,0,0,1-1.79-12.17h71.55l.43,0a11.39,11.39,0,0,1,1.24.16c2,.35,3.56,1,4,1.7h0a3.9,3.9,0,0,1,.39.52c.07.09.12.19.18.28h0s0,0,0,0l0,0a.52.52,0,0,1,.07.11.08.08,0,0,0,0,0l.09.16a1.11,1.11,0,0,0,.07.16.08.08,0,0,0,0,0c.11.25.2.49.31.74a27.33,27.33,0,0,1,1.92,8.21,14.47,14.47,0,0,1-.14,2.79s0,.25-.11.62a8.87,8.87,0,0,1-.38,1.39c-.38,1.39-2.42,7.07-11.12,12.21l-36.74,26.12Z"/><path class="cls-2" d="M134.22,153.49v72A33.22,33.22,0,0,1,122,223.67l-.8-.29h0l-.17-.06-.17-.08,0,0-.17-.09h0l-.29-.16a3.23,3.23,0,0,1-.53-.35,3.46,3.46,0,0,1-.89-1.08,3.94,3.94,0,0,1-.44-1.59h0v-43.7L100.86,195l-7.46,7.94-3,3.15,0,0L80,195,62.41,176.23v43.7h0a3.94,3.94,0,0,1-.44,1.59,3.46,3.46,0,0,1-.89,1.08,3.23,3.23,0,0,1-.53.35l-.29.16h0l-.17.09,0,0-.17.08-.17.06h0l-.8.29a33.22,33.22,0,0,1-12.18,1.79v-72H62.41s.32,0,.79.6l27.24,29,27.24-29c.47-.59.79-.6.79-.6Z"/><path class="cls-2" d="M318.54,177h-1A8.67,8.67,0,0,1,318.54,177Z"/><path class="cls-2" d="M463.49,202.58c0,.27,0,.53,0,.8v.09a21.9,21.9,0,0,1-.71,5.28.29.29,0,0,0,0,.09,22,22,0,0,1-21.25,16.35H381.21A33.05,33.05,0,0,1,383,213c.11-.31.22-.61.34-.92a.39.39,0,0,1,0-.06s0,0,0,0c.07-.17.12-.26.15-.34s.12-.25.2-.38a3.65,3.65,0,0,1,.35-.52,3.32,3.32,0,0,1,1.08-.89,3.78,3.78,0,0,1,1.59-.44h20.88v.08h32a12.66,12.66,0,0,0,2.89-.19c.07,0,.13-.06.19-.07l.15-.05a6.36,6.36,0,0,0,4-5.92v-.13h0v-.09a6.32,6.32,0,0,0-3.24-5.53l0,0a4.25,4.25,0,0,0-.84-.35,3.74,3.74,0,0,0-1.28-.14H403.26a21.82,21.82,0,0,1-10.33-2.58c-.46-.24-.9-.49-1.34-.77a22,22,0,0,1-9.42-11.87.41.41,0,0,1,0-.09s0-.09-.05-.15l-.09-.28,0-.16-.17-.56a1.3,1.3,0,0,0,0-.15,22.07,22.07,0,0,1-.56-4.26v-.07c0-.27,0-.53,0-.8v-.09a21.9,21.9,0,0,1,.71-5.28.29.29,0,0,0,0-.09,22,22,0,0,1,21.25-16.35h60.32c0,.17,0,.33,0,.5h0a33.14,33.14,0,0,1-1.79,12.17c-.11.31-.22.61-.34.91a.14.14,0,0,1,0,.06v0l-.15.33c-.06.12-.12.25-.2.38a3.71,3.71,0,0,1-.35.53,3.46,3.46,0,0,1-1.08.89,3.94,3.94,0,0,1-1.59.44H437.08v-.09h-32a12.27,12.27,0,0,0-2.89.2l-.19.07-.15.05a6.34,6.34,0,0,0-4,5.91v.18a6.31,6.31,0,0,0,3.22,5.08,0,0,0,0,1,0,0,4.12,4.12,0,0,0,.85.35,4.27,4.27,0,0,0,1.28.14h38.21a21.82,21.82,0,0,1,10.33,2.58c.46.24.9.5,1.34.77a22,22,0,0,1,9.42,11.87,1.78,1.78,0,0,1,.09.24l.09.28,0,.16.17.56a1.3,1.3,0,0,0,0,.15A21.3,21.3,0,0,1,463.49,202.58Z"/><path class="cls-2" d="M381.19,176.1c0-.14,0-.29,0-.44v-.36C381.17,175.57,381.18,175.83,381.19,176.1Z"/><path class="cls-2" d="M625.41,178.62a12.32,12.32,0,0,1-.33,1.49,13.86,13.86,0,0,0,.32-1.49Z"/><polygon class="cls-2" points="630 188.55 629.98 188.55 629.99 188.53 630 188.55"/><path class="cls-2" d="M612.31,189.05l1.18-2.48C613,187.42,612.65,188.25,612.31,189.05Z"/><path class="cls-2" d="M625.26,179.34c.52,1.21-1-1.28.15-.72"/><path class="cls-2" d="M638,168l-1.18-2.48,0,0c-.39-.76-.82-1.53-1.29-2.3a40.79,40.79,0,0,0-2.48-3.62,0,0,0,0,0,0,0,18.94,18.94,0,0,0-5.2-5,4,4,0,0,0-.61-.28c-.8-.47-3.57-.8-6.88-.8s-6,.32-6.85.78a3.78,3.78,0,0,0-.66.3,18.94,18.94,0,0,0-5.2,5,0,0,0,0,0,0,0,40.79,40.79,0,0,0-2.48,3.62c-.47.77-.9,1.54-1.29,2.3l0,0L602.61,168,576.7,222.57a33.09,33.09,0,0,0,11.77,3.6l.82.08s.48,0,.64,0l.38,0a3.68,3.68,0,0,0,.63-.09,3.35,3.35,0,0,0,1.27-.6,3.93,3.93,0,0,0,1.08-1.24l27-56.85v0h0v0l27,56.85a3.93,3.93,0,0,0,1.08,1.24,3.35,3.35,0,0,0,1.27.6,3.68,3.68,0,0,0,.63.09l.38,0c.16,0,.64,0,.64,0l.82-.08a33.09,33.09,0,0,0,11.77-3.6Z"/></g></g></svg>