<svg xmlns="http://www.w3.org/2000/svg" viewBox="0 0 122.51 21.77"><defs><style>.cls-1{font-size:5.01px;font-family:Lato-Regular, Lato;letter-spacing:0.37em;}.cls-2{letter-spacing:0.4em;}.cls-3{fill:#fff;}.cls-4{fill:#2bc179;}.cls-5{fill:#7e22ce;}.cls-6{fill:#e5053b;}</style></defs><g id="Layer_2" data-name="Layer 2"><g id="Layer_1-2" data-name="Layer 1"><text class="cls-1" transform="translate(12.47 20.85)">e<tspan class="cls-2" x="4.48" y="0" xml:space="preserve">xpanding  capabilities</tspan></text><polygon class="cls-3" points="12.7 7.42 12.69 7.43 12.69 7.41 12.7 7.42"/><rect class="cls-3" x="12.53" y="7.81" width="1.11"/><path class="cls-3" d="M108.46,7.52v.09a1.27,1.27,0,0,0,0-.2A.37.37,0,0,1,108.46,7.52Z"/><path class="cls-4" d="M108.46,7.41a5,5,0,0,1-.18,1.35A6,6,0,0,0,108.46,7.41Z"/><path class="cls-5" d="M102,1.1V14.28a6.55,6.55,0,0,1-2.41-.35l-.16-.06h0l0,0h-.08s0,0-.06,0l-.11-.07A.75.75,0,0,1,99,13.5a.71.71,0,0,1-.09-.32h0V8.59H90.92a9.8,9.8,0,0,1,.23-2.42s0-.1,0-.15h0s0,0,0,0v0h0a0,0,0,0,0,0,0h0l0,0,.05-.11a.64.64,0,0,1,.14-.18.53.53,0,0,1,.2-.09h7.23V0a6.81,6.81,0,0,1,2.42.36l.16.06h0l0,0h0l0,0,.11.07a.71.71,0,0,1,.18.22A.78.78,0,0,1,102,1.1Z"/><path class="cls-5" d="M37.15,5.51h0a6.74,6.74,0,0,0-.79-1.7h0l-.07-.11a7.79,7.79,0,0,0-1-1.17L35,2.27c-.16-.13-.32-.27-.49-.39A8.14,8.14,0,0,0,33.19,1,8.57,8.57,0,0,0,31.09.3a9.75,9.75,0,0,0-4.21,0A8.8,8.8,0,0,0,24.77,1a8.05,8.05,0,0,0-1.35.84,6.65,6.65,0,0,0-.75.64,6.89,6.89,0,0,0-1.84,3,6.32,6.32,0,0,0-.27,1.8,6.39,6.39,0,0,0,.27,1.81,6.54,6.54,0,0,0,.86,1.81,7.24,7.24,0,0,0,1,1.17,6.65,6.65,0,0,0,.75.64,8.05,8.05,0,0,0,1.35.84,9.25,9.25,0,0,0,2.11.74,9.65,9.65,0,0,0,2.1.23,9.74,9.74,0,0,0,2.11-.23,9,9,0,0,0,2.1-.74,8.14,8.14,0,0,0,1.36-.84l.49-.4.26-.24a7.79,7.79,0,0,0,1-1.17,1.27,1.27,0,0,0,.07-.12h0a6.52,6.52,0,0,0,.79-1.69h0a6.74,6.74,0,0,0,.25-1.8A6.67,6.67,0,0,0,37.15,5.51ZM35.1,6h0c0,.06,0,.12,0,.19a1.41,1.41,0,0,0-.06-.22S35.1,5.94,35.1,6ZM33.53,3.53c0,.05.11.1.16.16l0,0a4.94,4.94,0,0,1,.61.69,5.49,5.49,0,0,0-.64-.72l-.24-.22Zm.19,3.77a3.44,3.44,0,0,1-.27,1.36,4.42,4.42,0,0,1-.32.61,4.41,4.41,0,0,1-.62.75,3.79,3.79,0,0,1-.37.31,4.69,4.69,0,0,1-1.38.74l-.2.07a5.51,5.51,0,0,1-3.15,0,4.92,4.92,0,0,1-1.58-.81,2.89,2.89,0,0,1-.37-.31,3.92,3.92,0,0,1-.94-1.36,3.54,3.54,0,0,1,0-2.71,3.83,3.83,0,0,1,.94-1.36,2.94,2.94,0,0,1,.37-.32,4.71,4.71,0,0,1,1.58-.8,5.29,5.29,0,0,1,3.15,0l.2.06a4.94,4.94,0,0,1,1.38.74,3.87,3.87,0,0,1,.37.32,4.77,4.77,0,0,1,.62.74,4.54,4.54,0,0,1,.32.62A3.43,3.43,0,0,1,33.72,7.3Zm-.56-4.07,0,0L33,3.11Zm-1-.63a1.29,1.29,0,0,1,.16.09l-.21-.11Zm-1.58-.55h0L30.34,2Zm-3.15,0,.23,0-.26.06Zm-1.58.55.2-.09-.27.13Zm-1,.63L25,3.14l-.18.12ZM23,9.11A.36.36,0,0,1,23,9c.05.11.09.23.15.34A1.89,1.89,0,0,1,23,9.11Zm1.78,2.26s0,0,0,0l.18.13A.71.71,0,0,1,24.81,11.37Zm2.07,1.05-.29-.1.4.13Zm4.21,0-.11,0,.32-.1Zm2.07-1.05L33,11.5a1.56,1.56,0,0,0,.2-.16S33.17,11.36,33.16,11.37ZM34.46,10l-.13.17a2,2,0,0,0,.18-.26A.41.41,0,0,0,34.46,10Zm.65-1.37h0v0a1.8,1.8,0,0,0,.06-.22C35.14,8.52,35.12,8.58,35.11,8.65Z"/><path class="cls-5" d="M62.82,0V13.18a.71.71,0,0,1-.09.32.6.6,0,0,1-.17.21l-.11.07-.05,0h-.09l0,0h0l-.16.06a6.58,6.58,0,0,1-2.42.35V1.1h0a.68.68,0,0,1,.09-.31A.64.64,0,0,1,60,.57L60.07.5l.06,0h0l0,0h0l.16-.06A6.79,6.79,0,0,1,62.82,0Z"/><path class="cls-5" d="M89,0V13.18a.71.71,0,0,1-.09.32.6.6,0,0,1-.17.21l-.11.07s0,0-.06,0h-.08l0,0h0l-.17.06a6.53,6.53,0,0,1-2.41.35V1.1h0A.68.68,0,0,1,86,.79a.53.53,0,0,1,.17-.22L86.28.5l.06,0h0l0,0h0l.16-.06A6.76,6.76,0,0,1,89,0Z"/><path class="cls-5" d="M56.15,11a5.4,5.4,0,0,1-.4,2.31l-.06.15h0l0,0s0,0,0,0h0s0,0,0,0h0l0,0-.08.1a.76.76,0,0,1-.24.17,1,1,0,0,1-.35.08H40.19c.05-.52.09-.9.12-1.18a.74.74,0,0,0,0-.18c0-.1,0-.18,0-.25a2.44,2.44,0,0,1,.15-.46,2.72,2.72,0,0,1,.42-.64h0l0,0,.07-.08.05,0,.1-.1.12-.1,1.91-1.28,7.23-5.14,2.16-1.37H41.3A.71.71,0,0,1,41,3a.6.6,0,0,1-.21-.17l-.07-.11,0,0h0v0h0s0,0,0,0l0,0h0l-.06-.16A6.58,6.58,0,0,1,40.2,0H54.48a1.07,1.07,0,0,1,.25,0,1.36,1.36,0,0,1,.8.34h0a.35.35,0,0,1,.08.1.21.21,0,0,1,0,.06h0s0,0,0,0h0s0,0,0,0,0,0,0,0h0l.06.15a5.64,5.64,0,0,1,.38,1.63,2.41,2.41,0,0,1,0,.56.56.56,0,0,1,0,.12,1.54,1.54,0,0,1-.07.27,4.44,4.44,0,0,1-2.21,2.43L46.53,11Z"/><path class="cls-5" d="M17.38,0V14.28A6.58,6.58,0,0,1,15,13.93l-.16-.06h0l0,0h0l0,0h0l-.06,0-.1-.07a.71.71,0,0,1-.18-.22.83.83,0,0,1-.09-.31h0V4.51L10.76,8.23,9.28,9.81l-.59.62h0L6.62,8.23,3.13,4.51v8.68h0A.78.78,0,0,1,3,13.5a.71.71,0,0,1-.18.22l-.11.07,0,0h0l0,0h0l0,0h0l-.16.06A6.58,6.58,0,0,1,0,14.28V0H3.13s.06,0,.15.12L8.69,5.87,14.1.12c.09-.12.15-.12.15-.12Z"/><path class="cls-5" d="M82.73,9.74c0,.06,0,.11,0,.16v0A5.21,5.21,0,0,1,82.6,11s0,0,0,0a4.36,4.36,0,0,1-4.22,3.24h-12a6.34,6.34,0,0,1,.36-2.41l.06-.19h0l0-.07a.25.25,0,0,1,0-.07l.07-.11a.6.6,0,0,1,.21-.17.71.71,0,0,1,.32-.09H78a2.64,2.64,0,0,0,.58,0l0,0h0a1.26,1.26,0,0,0,.79-1.17v0h0v0a1.27,1.27,0,0,0-.64-1.1h0l-.16-.07a.93.93,0,0,0-.26,0H70.78a4.3,4.3,0,0,1-2-.51L68.46,8a4.4,4.4,0,0,1-1.87-2.36h0V5.49s0-.08,0-.11v0a4,4,0,0,1-.11-.85h0c0-.06,0-.11,0-.16v0a5.21,5.21,0,0,1,.14-1h0A4.36,4.36,0,0,1,70.76,0h12V.1h0a6.5,6.5,0,0,1-.35,2.41c0,.07,0,.13-.07.19h0l0,.07a.25.25,0,0,1,0,.07L82.16,3a.86.86,0,0,1-.21.18.82.82,0,0,1-.32.08H71.14a2.18,2.18,0,0,0-.57,0H70.5a1.25,1.25,0,0,0-.8,1.17v0h0a1.26,1.26,0,0,0,.64,1h0a.84.84,0,0,0,.16.07.86.86,0,0,0,.26,0h7.58a4.3,4.3,0,0,1,2.05.51l.27.15a4.4,4.4,0,0,1,1.87,2.36.12.12,0,0,1,0,.05v.08a.61.61,0,0,1,0,.11.08.08,0,0,1,0,0A4.13,4.13,0,0,1,82.73,9.74Z"/><path class="cls-5" d="M66.4,4.49s0-.06,0-.09V4.33S66.4,4.43,66.4,4.49Z"/><path class="cls-5" d="M112.27,7.06l.23-.49A5.4,5.4,0,0,0,112.27,7.06Z"/><path class="cls-5" d="M117.36,2.88l-.23-.5h0a5.2,5.2,0,0,0-.25-.46c-.16-.26-.33-.5-.49-.72h0a3.71,3.71,0,0,0-1-1l-.12,0A4,4,0,0,0,113.86,0a4.09,4.09,0,0,0-1.36.15l-.13.06a3.86,3.86,0,0,0-1,1h0a8.22,8.22,0,0,0-.49.72l-.26.46h0l-.24.5L105.2,13.71a6.63,6.63,0,0,0,2.34.72H108a.72.72,0,0,0,.46-.37l5.36-11.28h0l5.35,11.28a.76.76,0,0,0,.22.25.71.71,0,0,0,.25.12h.49a6.76,6.76,0,0,0,2.34-.72Z"/><ellipse class="cls-6" cx="28.98" cy="7.3" rx="2.55" ry="1.72"/></g></g></svg>